# xmcd
#
# Track frame offsets:
#	150
#	33987
#	55937
#	73337
#	93655
#	117300
#	134607
#	157825
#	179357
#	201747
#
# Disc length: 3000 seconds
#
# Revision: 0
# Processed by: cddbd v1.5.2PL0 Copyright (c) Steve Scherf et al.
# Submitted via: audiograbber 1.83.01
#
DISCID=980bb60a
DTITLE=Susan Ashton - Susan Ashton
DYEAR=1993
DGENRE=Kristen Country
TTITLE0=Summer Solstice
TTITLE1=Waiting for Your Love to Come Down
TTITLE2=Remember Not
TTITLE3=There is a Line
TTITLE4=Heart Like a Rock
TTITLE5=Agree to Disagree
TTITLE6=Hold the Intangible
TTITLE7=Call of the Wild
TTITLE8=No Remedy for Love
TTITLE9=A Rose is a Rose
EXTD=
EXTT0=
EXTT1=
EXTT2=
EXTT3=
EXTT4=
EXTT5=
EXTT6=
EXTT7=
EXTT8=
EXTT9=
PLAYORDER=
